<svg width="16" height="16" viewBox="0 0 16 16" fill="none" xmlns="http://www.w3.org/2000/svg">
<path d="M13.9485 8.71326L13.2822 8.62599L12.9574 8.98803H12.7819C12.733 7.7922 12.2649 6.70524 11.5234 5.87922L11.6482 5.75134L12.1282 5.77208L12.539 5.22774C13.0173 4.59267 13.2763 4.10708 13.6685 3.41239C13.6567 3.4003 13.6584 3.40202 13.6466 3.38993C12.9675 3.79084 12.4935 4.0561 11.8735 4.54687L11.342 4.96766L11.3631 5.45843L11.2375 5.58717C10.431 4.82682 9.37073 4.34728 8.20329 4.2963V4.11745L8.55673 3.78566L8.47153 3.10307C8.37115 2.30642 8.21932 1.77591 8.01687 1H7.98566C7.78237 1.77591 7.63054 2.30642 7.531 3.10307L7.44496 3.78566L7.7984 4.11745V4.2963C6.63011 4.34555 5.56896 4.82509 4.76255 5.58545L4.63855 5.45843L4.65964 4.96766L4.12822 4.54687C3.50738 4.0561 3.03416 3.79084 2.35512 3.38993C2.34332 3.40202 2.345 3.4003 2.33319 3.41239C2.52889 3.75974 2.69169 4.05524 2.86546 4.3421C3.03922 4.63069 3.22311 4.91063 3.46267 5.22774L3.87263 5.77208L4.35259 5.75134L4.47575 5.87749C3.73345 6.70438 3.2636 7.79133 3.21552 8.98803H3.04344L2.71868 8.62599L2.0523 8.71326C1.27541 8.81522 0.756643 8.97161 0 9.17898V9.21095C0.756643 9.41918 1.27541 9.57471 2.0523 9.67666L2.71868 9.76393L3.04344 9.4019H3.21552C3.26445 10.5995 3.73345 11.6864 4.47575 12.5124L4.35259 12.6386L3.87263 12.6178L3.46267 13.1622C2.98355 13.7973 2.72459 14.2828 2.33235 14.9775C2.34416 14.9896 2.34247 14.9879 2.35428 15C3.03332 14.5991 3.50654 14.3338 4.12737 13.8431L4.65879 13.4223L4.63771 12.9315L4.7617 12.8053C5.03248 13.0602 5.33193 13.2832 5.65416 13.4689C5.66596 13.456 5.66512 13.4577 5.67693 13.4447C5.60017 13.3074 5.54534 13.1596 5.48629 12.9643C5.48376 12.9617 5.48208 12.9583 5.47954 12.9557C4.24968 12.0882 3.46352 10.6055 3.5504 8.94482C3.67271 6.6102 5.54028 4.72659 7.82117 4.63587C10.3577 4.53478 12.4513 6.61884 12.4513 9.19453C12.4513 10.7515 11.6854 12.1288 10.5205 12.9522C10.5179 12.9548 10.5162 12.9583 10.5137 12.9609C10.4547 13.157 10.399 13.3056 10.3231 13.443C10.3349 13.456 10.334 13.4542 10.3458 13.4672C10.6672 13.2806 10.9658 13.0568 11.2358 12.8028L11.3615 12.9306L11.3404 13.4223L11.8718 13.8422C12.4926 14.333 12.9658 14.5982 13.6457 14.9991L13.6677 14.9767C13.472 14.6293 13.3092 14.3338 13.1354 14.0461C12.9616 13.7584 12.7777 13.4776 12.5382 13.1605L12.1274 12.6161L11.6474 12.6369L11.5226 12.509C12.264 11.6821 12.733 10.5969 12.7811 9.40017H12.9566L13.2813 9.7622L13.9477 9.67494C14.7246 9.57298 15.2434 9.41745 16 9.20922V9.17725C15.2434 8.96988 14.7246 8.81349 13.9477 8.71153L13.9485 8.71326Z" fill="#5BBE7B"/>
<path d="M8.85924 13.8138L9.3662 12.8901L9.84448 11.4783L10.5986 10.7914L11.0381 8.71164C11.0254 8.69263 11.5239 5.24512 8.00053 5.24512C4.47713 5.24512 4.97565 8.69263 4.963 8.71164L5.40247 10.7914L6.15659 11.4783L6.63486 12.8901L7.14182 13.8138V14.5093C7.32824 14.6709 7.50538 14.7901 7.653 14.7901H7.66565V12.7692H8.33626V14.7901H8.34891C8.49653 14.7901 8.67367 14.6709 8.86009 14.5093V13.8138H8.85924ZM9.18231 8.10508H9.68168C9.69855 7.01899 10.0368 6.35281 10.0511 6.3243L10.1996 6.40466C10.1971 6.40984 10.0031 6.7952 9.90437 7.44323H10.2629V7.61517H9.8816C9.86135 7.79144 9.8487 7.98412 9.8487 8.19148V8.27703H9.35018V9.49445H9.18231V8.10595V8.10508ZM9.52141 9.84439C10.3329 9.54716 10.5893 9.60937 10.5893 9.60937C10.5893 9.60937 10.5429 10.6039 9.87063 10.8527C9.19834 11.1024 8.58341 10.9512 8.58341 10.9512C8.58341 10.9512 8.7091 10.1408 9.52057 9.84439H9.52141ZM5.73651 7.44236H6.09501C5.99632 6.79434 5.8023 6.40898 5.79977 6.40379L5.94823 6.32344C5.96257 6.35195 6.30083 7.01899 6.3177 8.10422H6.81707V9.49273H6.6492V8.2753H6.15068V8.18976C6.15068 7.98239 6.13803 7.78971 6.11778 7.61344H5.73651V7.4415V7.44236ZM6.12875 10.8536C5.45646 10.6039 5.41006 9.61024 5.41006 9.61024C5.41006 9.61024 5.6665 9.54802 6.47797 9.84525C7.28944 10.1425 7.41513 10.9521 7.41513 10.9521C7.41513 10.9521 6.80104 11.1033 6.12791 10.8536H6.12875ZM8.48809 7.66788C8.48809 7.66788 8.26456 7.55037 7.99969 7.55037C7.73482 7.55037 7.51382 7.66615 7.51129 7.66788L7.43368 7.51581C7.44296 7.51062 7.64794 7.40262 7.91618 7.38275V6.21111H8.08404V7.38275C8.35144 7.40262 8.55726 7.51062 8.56654 7.51581L8.48893 7.66788H8.48809Z" fill="#5BBE7B"/>
<path d="M6.97363 13.8586L6.47848 12.9539L6.01201 11.5767L5.2503 10.8828L4.86734 9.07095L4.80239 9.06836C4.756 9.21957 4.71973 9.41311 4.71973 9.64813C4.71973 10.278 4.90868 10.844 5.03436 11.0323C5.06895 11.0842 5.14486 11.1516 5.14486 11.1516L5.83065 11.765L5.99429 12.2679L5.83571 12.3223L5.68641 11.8635L5.38949 11.5974L5.36249 11.6164C5.46962 11.8661 5.65098 12.3111 5.76232 12.7077C5.92766 13.2978 5.98502 13.3998 6.61344 14.0029C6.73154 14.1161 6.85385 14.2405 6.97531 14.3563V13.8594L6.97363 13.8586Z" fill="#5BBE7B"/>
<path d="M10.7507 10.8819L9.98896 11.5757L9.51659 12.9668L9.02734 13.8576V14.3544C9.14881 14.2386 9.27197 14.1142 9.38922 14.001C10.0176 13.3988 10.075 13.2968 10.2403 12.7058C10.3517 12.3093 10.5322 11.8651 10.6402 11.6146L10.6132 11.5956L10.3163 11.8617L10.1669 12.3205L10.0084 12.266L10.172 11.7632L10.8738 11.135C10.8738 11.135 10.9379 11.0745 10.9675 11.0313C11.0931 10.843 11.2821 10.277 11.2821 9.64715C11.2821 9.41213 11.245 9.21859 11.1994 9.06738L11.1345 9.06998L10.7515 10.8819H10.7507Z" fill="#5BBE7B"/>
</svg>
