<svg width="11" height="10" viewBox="0 0 11 10" fill="none" xmlns="http://www.w3.org/2000/svg">
<path d="M5.71777 4.25054C8.4792 4.25054 10.7178 3.41117 10.7178 2.37576C10.7178 1.34035 8.4792 0.500977 5.71777 0.500977C2.95635 0.500977 0.717773 1.34035 0.717773 2.37576C0.717773 3.41117 2.95635 4.25054 5.71777 4.25054Z" fill="#9B9C9E"/>
<path d="M5.71777 4.25054C8.4792 4.25054 10.7178 3.41117 10.7178 2.37576C10.7178 1.34035 8.4792 0.500977 5.71777 0.500977C2.95635 0.500977 0.717773 1.34035 0.717773 2.37576C0.717773 3.41117 2.95635 4.25054 5.71777 4.25054Z" fill="#9B9C9E"/>
<path d="M9.56953 4.76746C8.52586 5.15877 7.15797 5.3743 5.71777 5.3743C4.27758 5.3743 2.90967 5.15877 1.86602 4.76746C1.3884 4.58838 1.01244 4.38485 0.717773 4.16895V4.96183C0.717773 5.46259 1.23783 5.93342 2.18225 6.28749C3.1266 6.6416 4.38221 6.83663 5.71777 6.83663C7.05334 6.83663 8.30895 6.64163 9.2533 6.28751C10.1977 5.93342 10.7178 5.46259 10.7178 4.96183V4.16895C10.4231 4.38485 10.0471 4.58833 9.56953 4.76746Z" fill="#9B9C9E"/>
<path d="M9.56953 7.35533C8.5259 7.74664 7.15797 7.96217 5.71777 7.96217C4.27758 7.96217 2.90965 7.74664 1.86602 7.3553C1.38838 7.17623 1.01242 6.97274 0.717773 6.75684V7.62472C0.717773 8.66011 2.95635 9.49949 5.71777 9.49949C8.4792 9.49949 10.7178 8.66012 10.7178 7.6247V6.75686C10.4231 6.97272 10.0472 7.17625 9.56953 7.35533Z" fill="#9B9C9E"/>
</svg>
