<svg width="10" height="10" viewBox="0 0 10 10" fill="none" xmlns="http://www.w3.org/2000/svg">
<path fill-rule="evenodd" clip-rule="evenodd" d="M4.53427 -0.00097648H2.20854C1.99271 -0.00097648 1.78572 0.0846106 1.63315 0.237644C1.55747 0.31313 1.49743 0.402813 1.45648 0.501551C1.41554 0.600289 1.39448 0.706139 1.39453 0.813031V2.67362C1.39453 2.86619 1.55082 3.02248 1.74339 3.02248H4.99942C5.09195 3.02248 5.18068 2.98573 5.2461 2.9203C5.31153 2.85488 5.34828 2.76614 5.34828 2.67362V0.813031C5.34828 0.597203 5.2627 0.390212 5.10966 0.237644C5.03418 0.161962 4.94449 0.101925 4.84575 0.060977C4.74702 0.0200291 4.64117 -0.00102454 4.53427 -0.00097648ZM7.20887 5.81336V8.1391H8.83223C9.14249 8.1391 9.43972 8.0149 9.6588 7.79349C9.87746 7.5725 10 7.27409 9.99975 6.96321V5.81336H7.20887ZM7.20887 3.7202V5.11564H9.99975V4.89609C9.99975 4.58444 9.87696 4.28582 9.6588 4.0658C9.55074 3.95638 9.42204 3.8695 9.28015 3.81017C9.13827 3.75085 8.98602 3.72027 8.83223 3.7202H7.20887Z" fill="#9B9C9E"/>
<path fill-rule="evenodd" clip-rule="evenodd" d="M0.929318 1.67676C0.661426 1.7527 0.425631 1.91398 0.257731 2.13611C0.0898311 2.35824 -0.00100174 2.62909 -0.000976557 2.90754V8.72188C-0.000976557 9.06113 0.133791 9.38649 0.373679 9.62638C0.613567 9.86626 0.938925 10.001 1.27818 10.001H5.4645C5.80376 10.001 6.12911 9.86626 6.369 9.62638C6.60889 9.38649 6.74366 9.06113 6.74366 8.72188V2.90754C6.74368 2.62909 6.65285 2.35824 6.48495 2.13611C6.31705 1.91398 6.08125 1.7527 5.81336 1.67676V2.67496C5.81336 2.89085 5.7276 3.0979 5.57495 3.25055C5.42229 3.40321 5.21524 3.48897 4.99936 3.48897H1.74333C1.52744 3.48897 1.32039 3.40321 1.16773 3.25055C1.01508 3.0979 0.929318 2.89085 0.929318 2.67496V1.67676ZM1.85961 8.72188C1.95214 8.72188 2.04087 8.75863 2.10629 8.82406C2.17172 8.88948 2.20847 8.97821 2.20847 9.07074C2.20847 9.16326 2.17172 9.252 2.10629 9.31742C2.04087 9.38284 1.95214 9.4196 1.85961 9.4196C1.76709 9.4196 1.67835 9.38284 1.61293 9.31742C1.54751 9.252 1.51075 9.16326 1.51075 9.07074C1.51075 8.97821 1.54751 8.88948 1.61293 8.82406C1.67835 8.75863 1.76709 8.72188 1.85961 8.72188ZM3.37134 8.72188C3.46386 8.72188 3.5526 8.75863 3.61802 8.82406C3.68345 8.88948 3.7202 8.97821 3.7202 9.07074C3.7202 9.16326 3.68345 9.252 3.61802 9.31742C3.5526 9.38284 3.46386 9.4196 3.37134 9.4196C3.27882 9.4196 3.19008 9.38284 3.12466 9.31742C3.05923 9.252 3.02248 9.16326 3.02248 9.07074C3.02248 8.97821 3.05923 8.88948 3.12466 8.82406C3.19008 8.75863 3.27882 8.72188 3.37134 8.72188ZM4.88307 8.72188C4.97559 8.72188 5.06433 8.75863 5.12975 8.82406C5.19517 8.88948 5.23193 8.97821 5.23193 9.07074C5.23193 9.16326 5.19517 9.252 5.12975 9.31742C5.06433 9.38284 4.97559 9.4196 4.88307 9.4196C4.79054 9.4196 4.70181 9.38284 4.63639 9.31742C4.57096 9.252 4.53421 9.16326 4.53421 9.07074C4.53421 8.97821 4.57096 8.88948 4.63639 8.82406C4.70181 8.75863 4.79054 8.72188 4.88307 8.72188ZM1.85961 7.55901C1.95214 7.55901 2.04087 7.59576 2.10629 7.66119C2.17172 7.72661 2.20847 7.81535 2.20847 7.90787C2.20847 8.00039 2.17172 8.08913 2.10629 8.15455C2.04087 8.21998 1.95214 8.25673 1.85961 8.25673C1.76709 8.25673 1.67835 8.21998 1.61293 8.15455C1.54751 8.08913 1.51075 8.00039 1.51075 7.90787C1.51075 7.81535 1.54751 7.72661 1.61293 7.66119C1.67835 7.59576 1.76709 7.55901 1.85961 7.55901ZM3.37134 7.55901C3.46386 7.55901 3.5526 7.59576 3.61802 7.66119C3.68345 7.72661 3.7202 7.81535 3.7202 7.90787C3.7202 8.00039 3.68345 8.08913 3.61802 8.15455C3.5526 8.21998 3.46386 8.25673 3.37134 8.25673C3.27882 8.25673 3.19008 8.21998 3.12466 8.15455C3.05923 8.08913 3.02248 8.00039 3.02248 7.90787C3.02248 7.81535 3.05923 7.72661 3.12466 7.66119C3.19008 7.59576 3.27882 7.55901 3.37134 7.55901ZM4.88307 7.55901C4.97559 7.55901 5.06433 7.59576 5.12975 7.66119C5.19517 7.72661 5.23193 7.81535 5.23193 7.90787C5.23193 8.00039 5.19517 8.08913 5.12975 8.15455C5.06433 8.21998 4.97559 8.25673 4.88307 8.25673C4.79054 8.25673 4.70181 8.21998 4.63639 8.15455C4.57096 8.08913 4.53421 8.00039 4.53421 7.90787C4.53421 7.81535 4.57096 7.72661 4.63639 7.66119C4.70181 7.59576 4.79054 7.55901 4.88307 7.55901ZM4.76678 4.53555C4.89015 4.53555 5.00846 4.58456 5.09569 4.67179C5.18292 4.75902 5.23193 4.87733 5.23193 5.0007V6.16357C5.23193 6.28693 5.18292 6.40524 5.09569 6.49248C5.00846 6.57971 4.89015 6.62872 4.76678 6.62872H1.9759C1.85253 6.62872 1.73422 6.57971 1.64699 6.49248C1.55976 6.40524 1.51075 6.28693 1.51075 6.16357V5.0007C1.51075 4.87733 1.55976 4.75902 1.64699 4.67179C1.73422 4.58456 1.85253 4.53555 1.9759 4.53555H4.76678Z" fill="#9B9C9E"/>
</svg>
