<svg width="11" height="10" viewBox="0 0 11 10" fill="none" xmlns="http://www.w3.org/2000/svg">
<path d="M9.70992 7.78606H1.32854C1.01348 7.78606 0.757081 8.07451 0.757081 8.42895C0.757081 9.01954 1.18415 9.50043 1.70951 9.50043H9.32895C9.85431 9.50043 10.2814 9.01954 10.2814 8.42895C10.2814 8.07449 10.025 7.78606 9.70992 7.78606ZM0.957081 4.35732H10.0753C10.1229 4.35732 10.1747 4.33074 10.2101 4.29475C10.2448 4.25945 10.2664 4.21082 10.2707 4.15846C10.3324 3.46844 10.1156 2.79341 9.64325 2.20537C8.79749 1.15361 7.21723 0.5 5.51923 0.5C3.81857 0.5 2.23677 1.15488 1.39216 2.20922C0.919745 2.79856 0.704119 3.47443 0.767741 4.16533C0.777656 4.27417 0.859564 4.35732 0.957081 4.35732ZM8.05116 2.27694C8.12544 2.19338 8.24621 2.19338 8.32051 2.27694L8.70148 2.70553C8.77576 2.78954 8.77576 2.92496 8.70148 3.00855C8.66451 3.05055 8.61575 3.07154 8.567 3.07154C8.51824 3.07154 8.46946 3.05055 8.43212 3.00855L8.05116 2.57996C7.97688 2.4964 7.97688 2.36095 8.05116 2.27694ZM6.52727 3.13414L6.90823 2.70555C6.98251 2.62198 7.10328 2.62198 7.17758 2.70555C7.25187 2.78956 7.25187 2.92498 7.17758 3.00857L6.79662 3.43716C6.75965 3.47916 6.71089 3.50015 6.66214 3.50015C6.61338 3.50015 6.5646 3.47916 6.52727 3.43716C6.45298 3.35357 6.45298 3.21814 6.52727 3.13414ZM5.38436 1.41977C5.45864 1.3362 5.57941 1.3362 5.65371 1.41977L6.03468 1.84836C6.10896 1.93236 6.10896 2.06779 6.03468 2.15137C5.99773 2.19338 5.94896 2.21437 5.9002 2.21437C5.85144 2.21437 5.80266 2.19338 5.76533 2.15137L5.38436 1.72279C5.31006 1.6392 5.31006 1.50377 5.38436 1.41977ZM3.86047 2.27694L4.24144 1.84836C4.31572 1.76479 4.43649 1.76479 4.51079 1.84836C4.58507 1.93236 4.58507 2.06779 4.51079 2.15137L4.12982 2.57996C4.09286 2.62196 4.0441 2.64295 3.99534 2.64295C3.94658 2.64295 3.8978 2.62196 3.86047 2.57996C3.78619 2.4964 3.78619 2.36095 3.86047 2.27694ZM2.33658 2.70555C2.41086 2.62198 2.53163 2.62198 2.60593 2.70555L2.9869 3.13414C3.06118 3.21814 3.06118 3.35357 2.9869 3.43716C2.96931 3.45716 2.94837 3.47303 2.92528 3.48385C2.90219 3.49466 2.87742 3.5002 2.85242 3.50015C2.82735 3.50017 2.80254 3.49461 2.77939 3.4838C2.75624 3.47299 2.73523 3.45714 2.71755 3.43716L2.33658 3.00857C2.2623 2.92498 2.2623 2.78956 2.33658 2.70555ZM1.32854 4.78593C1.30352 4.7859 1.27874 4.79143 1.25562 4.80219C1.23249 4.81295 1.21148 4.82873 1.19379 4.84864C1.1761 4.86854 1.16206 4.89218 1.1525 4.91819C1.14294 4.9442 1.13803 4.97208 1.13805 5.00023C1.13803 5.02838 1.14294 5.05626 1.1525 5.08228C1.16206 5.10829 1.1761 5.13193 1.19379 5.15183C1.21148 5.17174 1.23249 5.18752 1.25562 5.19828C1.27874 5.20904 1.30352 5.21457 1.32854 5.21454H4.33097L6.5768 6.47759C6.60325 6.49265 6.6325 6.50043 6.66214 6.5003C6.71128 6.5003 6.76004 6.47887 6.79662 6.4373L7.88392 5.21454H9.70992C9.81506 5.21454 9.90041 5.11854 9.90041 5.00023C9.90041 4.88195 9.81508 4.78593 9.70992 4.78593H1.32854Z" fill="#9B9C9E"/>
<path d="M1.51902 7.35888H9.51943C9.98194 7.35888 10.3488 6.89344 10.2707 6.35684C10.209 5.93554 9.85622 5.64453 9.47676 5.64453H8.31099L7.00654 7.11203C6.95002 7.17564 6.87714 7.21761 6.79822 7.232C6.71931 7.24639 6.63838 7.23246 6.5669 7.19219L3.81514 5.64455H1.56131C1.18187 5.64455 0.82908 5.93556 0.767356 6.35686C0.689261 6.89342 1.05652 7.35888 1.51902 7.35888Z" fill="#9B9C9E"/>
</svg>
