<svg width="14" height="14" viewBox="0 0 14 14" fill="none" xmlns="http://www.w3.org/2000/svg">
<path fill-rule="evenodd" clip-rule="evenodd" d="M12.6622 3.67083C12.7716 3.78022 12.833 3.92857 12.833 4.08325C12.833 4.23792 12.7716 4.38627 12.6622 4.49566L10.9122 6.24566C10.8022 6.35192 10.6548 6.41072 10.5019 6.40939C10.349 6.40806 10.2026 6.34671 10.0945 6.23856C9.98633 6.1304 9.92498 5.98409 9.92366 5.83115C9.92233 5.6782 9.98112 5.53085 10.0874 5.42083L10.8416 4.66658L4.08313 4.66658C3.92842 4.66658 3.78005 4.60512 3.67065 4.49572C3.56126 4.38633 3.4998 4.23795 3.4998 4.08325C3.4998 3.92854 3.56126 3.78016 3.67065 3.67077C3.78005 3.56137 3.92842 3.49991 4.08313 3.49991L10.8416 3.49991L10.0874 2.74566C9.98112 2.63564 9.92233 2.48829 9.92366 2.33534C9.92498 2.1824 9.98633 2.03609 10.0945 1.92793C10.2026 1.81978 10.349 1.75843 10.5019 1.7571C10.6548 1.75577 10.8022 1.81457 10.9122 1.92083L12.6622 3.67083ZM10.4998 9.91658C10.4998 10.0713 10.4383 10.2197 10.3289 10.3291C10.2195 10.4385 10.0712 10.4999 9.91647 10.4999L3.15797 10.4999L3.91222 11.2542C4.01848 11.3642 4.07727 11.5115 4.07594 11.6645C4.07461 11.8174 4.01327 11.9637 3.90511 12.0719C3.79696 12.18 3.65065 12.2414 3.4977 12.2427C3.34475 12.2441 3.1974 12.1853 3.08738 12.079L1.33738 10.329C1.22802 10.2196 1.16659 10.0713 1.16659 9.91658C1.16659 9.7619 1.22802 9.61355 1.33738 9.50416L3.08738 7.75416C3.1974 7.6479 3.34475 7.58911 3.4977 7.59044C3.65065 7.59177 3.79696 7.65311 3.90511 7.76127C4.01327 7.86942 4.07461 8.01573 4.07594 8.16868C4.07727 8.32163 4.01848 8.46898 3.91222 8.579L3.15797 9.33325L9.91647 9.33325C10.0712 9.33325 10.2195 9.3947 10.3289 9.5041C10.4383 9.6135 10.4998 9.76187 10.4998 9.91658Z" fill="#616161"/>
<mask id="mask0_338_12124" style="mask-type:alpha" maskUnits="userSpaceOnUse" x="1" y="1" width="12" height="12">
<path fill-rule="evenodd" clip-rule="evenodd" d="M12.6622 3.67083C12.7716 3.78022 12.833 3.92857 12.833 4.08325C12.833 4.23792 12.7716 4.38627 12.6622 4.49566L10.9122 6.24566C10.8022 6.35192 10.6548 6.41072 10.5019 6.40939C10.349 6.40806 10.2026 6.34671 10.0945 6.23856C9.98633 6.1304 9.92498 5.98409 9.92366 5.83115C9.92233 5.6782 9.98112 5.53085 10.0874 5.42083L10.8416 4.66658L4.08313 4.66658C3.92842 4.66658 3.78005 4.60512 3.67065 4.49572C3.56126 4.38633 3.4998 4.23795 3.4998 4.08325C3.4998 3.92854 3.56126 3.78016 3.67065 3.67077C3.78005 3.56137 3.92842 3.49991 4.08313 3.49991L10.8416 3.49991L10.0874 2.74566C9.98112 2.63564 9.92233 2.48829 9.92366 2.33534C9.92498 2.1824 9.98633 2.03609 10.0945 1.92793C10.2026 1.81978 10.349 1.75843 10.5019 1.7571C10.6548 1.75577 10.8022 1.81457 10.9122 1.92083L12.6622 3.67083ZM10.4998 9.91658C10.4998 10.0713 10.4383 10.2197 10.3289 10.3291C10.2195 10.4385 10.0712 10.4999 9.91647 10.4999L3.15797 10.4999L3.91222 11.2542C4.01848 11.3642 4.07727 11.5115 4.07594 11.6645C4.07461 11.8174 4.01327 11.9637 3.90511 12.0719C3.79696 12.18 3.65065 12.2414 3.4977 12.2427C3.34475 12.2441 3.1974 12.1853 3.08738 12.079L1.33738 10.329C1.22802 10.2196 1.16659 10.0713 1.16659 9.91658C1.16659 9.7619 1.22802 9.61355 1.33738 9.50416L3.08738 7.75416C3.1974 7.6479 3.34475 7.58911 3.4977 7.59044C3.65065 7.59177 3.79696 7.65311 3.90511 7.76127C4.01327 7.86942 4.07461 8.01573 4.07594 8.16868C4.07727 8.32163 4.01848 8.46898 3.91222 8.579L3.15797 9.33325L9.91647 9.33325C10.0712 9.33325 10.2195 9.3947 10.3289 9.5041C10.4383 9.6135 10.4998 9.76187 10.4998 9.91658Z" fill="#616161"/>
</mask>
<g mask="url(#mask0_338_12124)">
<rect y="-0.000244141" width="17.5" height="7" fill="#E96B82"/>
</g>
<path d="M10 8L10 10" stroke="#616161" stroke-linecap="round"/>
<path d="M4 4L4 6" stroke="#E96B82" stroke-linecap="round"/>
</svg>
